<?xml version="1.0" encoding="UTF-8"?>
<!DOCTYPE svg PUBLIC "-//W3C//DTD SVG 1.1//EN" "http://www.w3.org/Graphics/SVG/1.1/DTD/svg11.dtd">
<!-- Creator: CorelDRAW X6 -->
<svg xmlns="http://www.w3.org/2000/svg" xml:space="preserve" width="8.5in" height="11in" version="1.1" style="shape-rendering:geometricPrecision; text-rendering:geometricPrecision; image-rendering:optimizeQuality; fill-rule:evenodd; clip-rule:evenodd"
viewBox="0 0 8500 11000"
 xmlns:xlink="http://www.w3.org/1999/xlink"
 enable-background="new 74.885 -158.972 286 199.5">
 <defs>
  <style type="text/css">
   <![CDATA[
    .fil0 {fill:none}
    .fil1 {fill:#E6E7E8}
    .fil3 {fill:#FDC645}
    .fil2 {fill:#4B4B4D;fill-rule:nonzero}
   ]]>
  </style>
 </defs>
 <g id="__x0023_Layer_x0020_3">
  <metadata id="CorelCorpID_1Corel-Layer"/>
  <g id="zarinpal-flat.svg">
   <g>
    <path class="fil3" d="M3501 4970l2610 0 28 -185c0,-1 0,-2 0,-5 0,-11 -7,-23 -17,-33 -15,-15 -35,-25 -57,-28 -4,-1 -9,-1 -14,-1l-2429 0 124 -257 2305 0c17,0 34,1 51,4 76,11 147,47 200,99 57,56 94,132 94,216 0,14 -1,27 -3,42l-258 1737c-12,87 -51,169 -110,228 -59,59 -137,96 -231,96l-12 0 -2195 0 -1280 0 -203 0 87 -184 1103 -2325 -1015 0 0 -257 1218 0 203 0 -87 184 -1103 2325 1077 0 2195 0 12 0c20,0 37,-8 49,-21 20,-19 34,-49 38,-84l128 -861 -2841 0 333 -690zm207 1250l1631 0c39,0 71,32 71,71l0 0c0,40 -32,72 -71,72l-1631 0c-39,0 -71,-32 -71,-72l0 0c0,-39 32,-71 71,-71zm1354 -387l313 0c39,0 72,32 72,71l0 0c0,40 -33,72 -72,72l-313 0c-39,0 -71,-32 -71,-72l0 0c0,-39 32,-71 71,-71zm-1111 0l827 0c40,0 72,32 72,71l0 0c0,40 -32,72 -72,72l-827 0c-39,0 -72,-32 -72,-72l0 0c0,-39 33,-71 72,-71z"/>
   </g>
  </g>
 </g>
</svg>
